<svg width="24" height="24" viewBox="0 0 24 24" fill="none" xmlns="http://www.w3.org/2000/svg">
<g clip-path="url(#clip0_6_45)">
<path d="M24.025 12.25L12.925 1.1125C12.775 0.9625 12.4 0.9625 12.175 1.1125L9.10001 4.1875L11.95 7.0375C12.175 6.925 12.4375 6.8875 12.7 6.8875C13.75 6.8875 14.5375 7.75 14.5375 8.725C14.5375 8.9875 14.5 9.25 14.3875 9.475L16.675 11.7625C16.9 11.65 17.1625 11.6125 17.425 11.6125C18.475 11.6125 19.2625 12.475 19.2625 13.45C19.2625 14.5 18.4 15.2875 17.425 15.2875C16.375 15.2875 15.5875 14.425 15.5875 13.45C15.5875 13.1875 15.625 12.925 15.7375 12.7L13.45 10.4125H13.4125V14.725C14.0875 15.025 14.575 15.6625 14.575 16.45C14.575 17.5 13.7125 18.2875 12.7375 18.2875C11.6875 18.2875 10.9 17.425 10.9 16.45C10.9 15.6625 11.3875 14.9875 12.0625 14.725V10.525C11.3875 10.225 10.9 9.5875 10.9 8.8C10.9 8.5375 10.9375 8.275 11.05 8.05L8.20001 5.2L1.1125 12.25C0.9625 12.4 0.9625 12.775 1.1125 13L12.25 24.1375C12.4 24.2875 12.775 24.2875 13 24.1375L24.1 13C24.2125 12.775 24.2125 12.475 24.025 12.25Z" fill="#BD3737"/>
</g>
<defs>
<clipPath id="clip0_6_45">
<rect width="24" height="24" fill="white"/>
</clipPath>
</defs>
</svg>
