<svg width="18" height="18" viewBox="0 0 18 18" fill="none" xmlns="http://www.w3.org/2000/svg">
<path d="M9 0C4.06452 0 0 4.10886 0 9.23005C0 13.2794 2.58387 16.7332 6.18387 17.9837C6.64839 18.073 6.79355 17.7753 6.79355 17.5669C6.79355 17.3585 6.79355 16.763 6.76452 15.9591C4.26774 16.5545 3.74516 14.7085 3.74516 14.7085C3.33871 13.6664 2.72903 13.3687 2.72903 13.3687C1.91613 12.7732 2.75806 12.7732 2.75806 12.7732C3.65806 12.803 4.15161 13.726 4.15161 13.726C4.93548 15.1552 6.27097 14.7383 6.76452 14.4703C6.85161 13.8749 7.08387 13.458 7.34516 13.2198C5.37097 13.0114 3.25161 12.2075 3.25161 8.69411C3.25161 7.68179 3.62903 6.87788 4.18064 6.25262C4.09355 6.0442 3.77419 5.09142 4.26774 3.81112C4.26774 3.81112 5.05161 3.57292 6.76452 4.7639C7.49032 4.55548 8.24516 4.43638 9.02903 4.43638C9.8129 4.43638 10.5968 4.5257 11.2935 4.7639C13.0065 3.6027 13.7613 3.81112 13.7613 3.81112C14.2548 5.06164 13.9645 6.0442 13.8484 6.25262C14.429 6.87788 14.7774 7.71156 14.7774 8.69411C14.7774 12.2075 12.6581 13.0114 10.6839 13.2198C11.0032 13.5176 11.2935 14.1131 11.2935 14.9467C11.2935 16.1973 11.2645 17.1798 11.2645 17.4776C11.2645 17.7157 11.4387 17.9837 11.8742 17.8944C15.4161 16.6736 18 13.2496 18 9.1705C17.971 4.10886 13.9355 0 9 0Z" fill="black"/>
</svg>
