<svg width="24" height="24" viewBox="0 0 24 24" fill="none" xmlns="http://www.w3.org/2000/svg">
<path d="M11.5353 18.0375C11.3478 18.0375 11.1978 18 11.0478 17.925L8.04781 16.725C7.59781 16.5375 7.29781 16.1625 7.22281 15.7125L6.88531 13.8375C6.81031 13.3875 7.11031 12.9375 7.56031 12.8625C8.01031 12.7875 8.46031 13.0875 8.53531 13.5375L8.83531 15.225L11.5353 16.3125L14.2353 15.1875L14.9103 11.85H7.86031C7.22281 11.85 6.66031 11.4 6.54781 10.725L6.02281 7.725C5.94781 7.3125 6.06031 6.8625 6.32281 6.525L6.36031 6.4875C6.66031 6.1875 7.03531 6 7.48531 6H16.1853C16.6353 6 17.0478 6.375 17.0478 6.8625C17.0478 7.35 16.6728 7.725 16.1853 7.725H7.71031L8.16031 10.2H15.3603C15.7728 10.2 16.1478 10.3875 16.4103 10.6875C16.6728 10.9875 16.7853 11.4 16.6728 11.8125L15.8853 15.675C15.8103 16.125 15.5103 16.5 15.0978 16.65L12.0978 17.8875C11.9103 18 11.7228 18.0375 11.5353 18.0375Z" fill="#9C2A2A"/>
<path d="M12 23.3249C11.775 23.3249 11.55 23.2874 11.325 23.2499L5.4 21.8624C4.2375 21.5999 3.33751 20.5874 3.18751 19.3874L1.35001 3.89993C1.27501 3.07493 1.53751 2.24993 2.06251 1.61243C2.62501 1.01243 3.41251 0.674927 4.2375 0.674927H19.7625C20.5875 0.674927 21.375 1.01243 21.9375 1.64993C22.5 2.24993 22.7625 3.11243 22.65 3.89993L20.8125 19.3874C20.6625 20.5874 19.7625 21.5999 18.6 21.8624L12.675 23.2499C12.45 23.3249 12.225 23.3249 12 23.3249ZM4.2375 2.36243C3.9 2.36243 3.56251 2.51243 3.33751 2.77493C3.11251 2.99993 3.00001 3.33743 3.03751 3.71243L4.875 19.1999C4.95 19.6874 5.2875 20.0999 5.8125 20.2499L11.7375 21.6374C11.925 21.6749 12.1125 21.6749 12.3 21.6374L18.1875 20.2499C18.675 20.1374 19.05 19.7249 19.125 19.1999L20.9625 3.71243C21 3.33743 20.8875 2.99993 20.6625 2.73743C20.4375 2.47493 20.1 2.32493 19.7625 2.32493H4.2375V2.36243Z" fill="#9C2A2A"/>
</svg>
