<svg width="18" height="18" viewBox="0 0 18 18" fill="none" xmlns="http://www.w3.org/2000/svg">
<mask id="mask0_17_31" style="mask-type:luminance" maskUnits="userSpaceOnUse" x="0" y="0" width="18" height="18">
<path d="M18 0H0V18H18V0Z" fill="white"/>
</mask>
<g mask="url(#mask0_17_31)">
<path fill-rule="evenodd" clip-rule="evenodd" d="M17.2 8.99977C17.2 4.03267 13.3466 0 8.60022 0H8.59979C3.85345 0 0 4.03267 0 8.99977C0 13.9669 3.85345 17.9996 8.59979 17.9996H8.60022C13.3466 17.9996 17.2 13.9669 17.2 8.99977ZM9.46349 8.99986C9.46349 11.2122 7.76142 13.0056 5.66192 13.0056C3.56239 13.0056 1.86019 11.2118 1.86019 8.99986C1.86019 6.78794 3.56225 4.99402 5.66192 4.99402C7.76155 4.99402 9.46349 6.78755 9.46349 8.99986ZM13.634 8.99986C13.634 11.0823 12.7829 12.7711 11.7331 12.7711C10.6833 12.7711 9.83227 11.0823 9.83227 8.99986C9.83227 6.91746 10.6832 5.22863 11.733 5.22863C12.7828 5.22863 13.634 6.91692 13.634 8.99986ZM15.3398 8.99986C15.3398 10.8652 15.0405 12.3782 14.6713 12.3782C14.302 12.3782 14.0029 10.8656 14.0029 8.99986C14.0029 7.13413 14.3021 5.62148 14.6713 5.62148C15.0404 5.62148 15.3398 7.13399 15.3398 8.99986Z" fill="black"/>
</g>
</svg>
