<svg width="24" height="24" viewBox="0 0 24 24" fill="none" xmlns="http://www.w3.org/2000/svg">
<path d="M18.975 8.60351C18.7125 8.56601 18.4875 8.45351 18.225 8.37851C18.2625 8.22851 18.2625 8.07851 18.3375 7.85351C18.8625 5.15351 18.4875 3.01603 17.2875 2.26603C16.0875 1.59103 14.1375 2.30353 12.1875 3.99101C12.0375 4.14101 11.775 4.29101 11.625 4.51601C11.5125 4.40351 11.3625 4.29101 11.25 4.14101C9.1875 2.30353 7.1625 1.55353 5.8875 2.26603C4.6875 2.94103 4.3125 5.00351 4.8375 7.51601C4.875 7.77851 4.95 8.04101 4.9875 8.26601C4.725 8.30351 4.425 8.41601 4.1625 8.52851C1.725 9.39101 0 10.7785 0 12.091C0 13.516 1.8375 14.941 4.35 15.766C4.575 15.8035 4.7625 15.916 4.9875 15.916C4.95 16.1785 4.8375 16.441 4.8375 16.741C4.35 19.216 4.725 21.2035 5.925 21.8785C7.125 22.6285 9.225 21.8785 11.175 20.0785C11.325 19.9285 11.475 19.816 11.6625 19.666C11.8125 19.816 12.075 20.041 12.3 20.191C14.175 21.8785 16.125 22.5535 17.3625 21.8785C18.5625 21.1285 18.975 19.0285 18.45 16.4035C18.4125 16.2535 18.4125 15.991 18.3 15.766C18.45 15.7285 18.5625 15.7285 18.7125 15.616C21.3375 14.8285 23.25 13.4035 23.25 11.9785C23.2125 10.816 21.4125 9.46601 18.975 8.60351ZM12.825 4.77851C14.5125 3.31603 16.0875 2.79103 16.8375 3.16603C17.5875 3.57853 17.8875 5.37851 17.4 7.74101C17.3625 7.89101 17.3625 8.00351 17.2875 8.22851C16.275 8.00351 15.3 7.81601 14.25 7.74101C13.6875 6.91601 13.05 6.05351 12.375 5.37851C12.525 5.07851 12.675 4.92851 12.825 4.77851ZM7.6125 14.491C7.8375 14.9035 8.1 15.2785 8.3625 15.6535C7.6125 15.616 6.9375 15.5035 6.2625 15.3535C6.4125 14.716 6.675 14.041 7.0125 13.366C7.1625 13.7035 7.425 14.1535 7.6125 14.491ZM6.2625 9.09101C6.9 8.94101 7.575 8.82851 8.325 8.71601C8.0625 9.09101 7.8375 9.46601 7.65 9.87851C7.4625 10.291 7.2375 10.6285 7.0125 11.0785C6.675 10.366 6.4875 9.72851 6.2625 9.09101ZM7.4625 12.2035C7.725 11.566 8.1 11.0035 8.475 10.366C8.85 9.72851 9.225 9.16601 9.5625 8.56601C10.2375 8.52851 10.9125 8.52851 11.625 8.52851C12.3 8.52851 13.05 8.56601 13.6875 8.56601C14.1 9.12851 14.4375 9.72851 14.775 10.291C15.15 10.8535 15.45 11.491 15.7875 12.1285C15.525 12.766 15.15 13.3285 14.775 13.966C14.4 14.6035 14.025 15.166 13.6875 15.766C13.0125 15.8035 12.3375 15.8035 11.5875 15.8035C10.8375 15.8035 10.1625 15.766 9.525 15.766C9.1125 15.2035 8.775 14.6035 8.4375 13.966C8.1 13.3285 7.8 12.841 7.4625 12.2035ZM15.6375 14.491C15.8625 14.0785 16.05 13.7035 16.275 13.291C16.5375 13.9285 16.8 14.6035 17.025 15.2785C16.35 15.4285 15.6 15.541 14.85 15.6535C15.15 15.2785 15.4125 14.866 15.6375 14.491ZM16.3125 11.041C16.0875 10.6285 15.9 10.2535 15.675 9.84101C15.45 9.42851 15.1875 9.09101 15 8.75351C15.75 8.86601 16.425 8.97851 17.0625 9.12851C16.8375 9.76601 16.575 10.4035 16.3125 11.041ZM11.625 5.97851C12.1125 6.50351 12.525 7.02851 12.9375 7.59101C12.0375 7.55351 11.1375 7.55351 10.2375 7.59101C10.725 6.99101 11.2125 6.46601 11.625 5.97851ZM6.375 3.20353C7.125 2.79103 8.85 3.35353 10.575 5.00351C10.6875 5.11601 10.8 5.22851 10.95 5.30351C10.275 6.05351 9.6375 6.87851 9 7.66601C7.9875 7.77851 6.9375 7.92851 5.9625 8.15351C5.925 7.92851 5.85 7.66601 5.8125 7.47851C5.4 5.26601 5.6625 3.61603 6.375 3.20353ZM5.325 15.1285C5.175 15.091 4.95 15.016 4.7625 14.9785C3.75 14.716 2.7 14.191 1.875 13.5535C1.35 13.1785 1.0875 12.7285 0.975 12.2035C0.975 11.3785 2.4375 10.3285 4.5 9.57851C4.7625 9.46601 5.025 9.42851 5.2875 9.31601C5.5875 10.3285 5.9625 11.266 6.375 12.2035C6 13.141 5.5875 14.0785 5.325 15.1285ZM10.5375 19.516C9.7875 20.191 8.925 20.716 7.95 21.091C7.425 21.3535 6.8625 21.3535 6.375 21.1285C5.625 20.716 5.3625 19.141 5.7375 16.966C5.775 16.7035 5.85 16.441 5.8875 16.216C6.9 16.441 7.95 16.591 8.925 16.6285C9.4875 17.4535 10.2 18.316 10.875 19.066C10.8375 19.291 10.6875 19.4035 10.5375 19.516ZM11.6625 18.466C11.175 17.941 10.7625 17.416 10.3125 16.8535C10.725 16.8535 11.1375 16.891 11.625 16.891C12.1125 16.891 12.5625 16.891 12.975 16.8535C12.5625 17.341 12.15 17.866 11.6625 18.466ZM17.5875 19.7785C17.55 20.3035 17.2875 20.866 16.8375 21.2035C16.0875 21.616 14.5875 21.091 12.9375 19.6285C12.7875 19.4785 12.5625 19.3285 12.375 19.1035C13.05 18.3535 13.6875 17.5285 14.25 16.666C15.3 16.6285 16.3125 16.4035 17.2875 16.1785C17.325 16.3285 17.325 16.5535 17.4 16.7035C17.6625 17.7535 17.6625 18.8035 17.5875 19.7785ZM18.4125 14.941C18.3 14.9785 18.15 14.9785 18 15.0535C17.7 14.041 17.25 13.1035 16.8375 12.166C17.25 11.266 17.625 10.291 17.925 9.31601C18.1875 9.35351 18.4125 9.46601 18.6 9.54101C20.7 10.291 22.1625 11.341 22.1625 12.166C22.2 13.0285 20.6625 14.191 18.4125 14.941ZM11.625 14.2285C12.7875 14.2285 13.6875 13.291 13.6875 12.166C13.6875 11.041 12.75 10.1035 11.625 10.1035C10.5375 10.1035 9.5625 11.041 9.5625 12.166C9.5625 13.291 10.4625 14.2285 11.625 14.2285Z" fill="#3DE8D3"/>
</svg>
